<?xml version="1.0" standalone="no"?>
<!DOCTYPE svg PUBLIC "-//W3C//DTD SVG 20010904//EN"
 "http://www.w3.org/TR/2001/REC-SVG-20010904/DTD/svg10.dtd">
<svg version="1.0" xmlns="http://www.w3.org/2000/svg"
 width="569.000000pt" height="885.000000pt" viewBox="0 0 569.000000 885.000000"
 preserveAspectRatio="xMidYMid meet">

<g transform="translate(0.000000,885.000000) scale(0.100000,-0.100000)"
fill="#000000" stroke="none">
<path class="svg2" d="M1567 8032 l-229 -2 5 -48 c21 -188 91 -328 225 -452 114 -105 148
-130 174 -130 14 0 28 -3 32 -7 10 -10 75 -33 126 -45 25 -6 103 -13 174 -17
147 -7 160 -14 138 -74 -7 -18 -12 -53 -12 -78 -1 -24 -7 -55 -15 -69 -8 -14
-14 -50 -15 -80 0 -31 -4 -60 -9 -65 -5 -6 -12 -41 -15 -80 -8 -108 -20 -199
-30 -213 -9 -15 -24 -94 -36 -202 -21 -174 -26 -206 -38 -227 -7 -12 -12 -46
-12 -77 0 -30 -4 -58 -10 -61 -5 -3 -10 -39 -10 -80 0 -41 -4 -77 -10 -80 -5
-3 -10 -31 -10 -61 0 -31 -5 -65 -12 -77 -12 -22 -24 -94 -34 -212 -3 -33 -10
-64 -15 -69 -5 -6 -9 -32 -9 -59 0 -26 -5 -58 -12 -70 -11 -20 -20 -87 -34
-242 -3 -33 -10 -64 -15 -69 -5 -6 -9 -22 -9 -37 0 -54 -7 -59 -79 -59 -38 -1
-76 -7 -91 -15 -14 -8 -37 -14 -53 -15 -15 0 -35 -4 -45 -9 -25 -13 -143 -52
-174 -58 -15 -3 -35 -14 -44 -24 -9 -10 -24 -19 -33 -19 -19 0 -404 -193 -451
-226 -55 -40 -68 -53 -93 -103 -30 -57 -38 -105 -26 -156 4 -22 11 -53 15 -70
4 -18 34 -59 77 -102 56 -57 78 -73 100 -73 16 0 37 -5 47 -10 26 -14 3730
-14 3744 0 5 5 31 10 56 10 43 0 49 4 106 63 62 64 71 78 99 163 16 46 16 52
1 82 -9 17 -16 44 -16 59 0 22 -17 45 -73 101 -40 39 -81 72 -91 72 -10 0 -31
11 -48 25 -16 14 -40 25 -53 25 -12 0 -28 6 -34 14 -15 18 -86 56 -104 56 -16
0 -164 75 -186 94 -9 7 -27 16 -41 19 -14 3 -63 19 -110 36 -47 17 -98 31
-115 31 -16 0 -48 7 -70 15 -22 8 -61 14 -87 15 -44 0 -48 2 -54 28 -3 15 -10
36 -14 47 -5 11 -11 45 -14 75 -3 30 -10 82 -16 115 -6 33 -14 88 -19 121 -4
34 -12 68 -17 75 -9 13 -18 90 -30 244 -3 39 -11 76 -17 84 -7 8 -15 44 -19
80 -4 36 -12 96 -18 134 -5 37 -14 95 -19 130 -5 34 -14 80 -20 102 -6 22 -11
57 -11 77 0 20 -4 40 -10 43 -5 3 -10 31 -10 61 0 31 -4 63 -10 73 -5 10 -10
38 -11 62 -1 24 -8 59 -15 76 -7 18 -10 48 -7 66 3 18 0 51 -7 73 -17 54 -31
136 -37 219 -2 39 -9 76 -15 83 -6 7 -10 39 -9 72 1 37 -5 72 -14 90 -18 35
-19 82 -3 98 8 8 58 12 159 12 81 0 150 4 153 9 6 10 147 61 168 61 8 0 25 12
39 26 13 14 38 33 56 42 28 15 78 69 168 178 34 43 55 80 55 101 0 8 6 27 14
41 18 36 36 94 36 119 0 11 7 34 16 51 25 50 12 72 -44 72 -229 3 -2639 4
-2815 2z"/>
<path class="svg2"  d="M2538 3769 c-21 -12 -24 -59 -6 -92 6 -12 15 -67 20 -122 17 -199 20
-220 29 -229 5 -6 9 -39 9 -74 0 -35 5 -73 12 -85 6 -12 13 -53 14 -91 2 -38
8 -74 14 -80 5 -5 10 -43 10 -82 0 -40 5 -76 10 -79 6 -3 10 -34 10 -68 0 -34
7 -80 14 -102 8 -22 14 -68 14 -101 0 -34 5 -71 11 -82 6 -11 11 -45 11 -76 0
-30 5 -58 10 -61 6 -3 10 -41 10 -84 0 -50 5 -89 15 -107 9 -18 12 -42 9 -65
-4 -22 -1 -46 7 -60 13 -22 19 -70 35 -274 3 -38 10 -75 15 -82 6 -6 12 -40
14 -75 13 -174 44 -354 60 -351 6 1 15 53 22 115 7 62 17 140 23 173 7 33 14
92 17 130 2 39 9 74 14 79 5 6 9 35 9 66 0 31 5 61 12 68 8 8 11 37 10 77 -2
46 2 72 13 88 10 14 15 44 15 87 0 36 4 70 9 75 5 6 12 48 15 95 7 119 22 229
36 268 7 18 10 51 8 75 -3 23 0 53 5 67 10 23 16 67 35 245 4 39 12 77 17 85
6 8 13 51 18 95 4 44 12 118 17 165 5 47 13 121 17 165 5 44 14 90 21 102 7
12 12 48 11 81 -1 33 4 67 12 79 10 18 11 24 0 37 -12 14 -55 16 -350 16 -209
0 -343 -4 -353 -11z"/>
<path class="svg2"  d="M1885 1333 c-33 -14 -76 -32 -97 -40 -53 -22 -112 -85 -103 -112 13
-41 60 -84 124 -113 77 -35 274 -89 346 -95 28 -2 77 -9 110 -14 115 -20 282
-27 600 -27 314 0 451 6 570 27 33 5 83 12 110 14 64 6 262 59 338 90 67 28
137 91 137 123 0 27 -72 95 -120 113 -19 7 -63 25 -97 38 -62 26 -93 25 -93 0
0 -8 9 -22 21 -33 33 -30 51 -71 40 -92 -18 -33 -81 -85 -118 -99 -146 -53
-217 -72 -308 -83 -44 -6 -114 -15 -155 -21 -95 -12 -577 -12 -690 1 -192 21
-232 29 -397 82 -80 25 -97 35 -137 78 -43 46 -45 51 -34 77 6 15 23 40 36 55
27 29 24 58 -5 57 -10 0 -45 -12 -78 -26z"/>
<path class="svg2"  d="M1450 1240 c-8 -5 -27 -10 -42 -10 -15 0 -29 -4 -32 -9 -4 -5 -32
-17 -64 -27 -57 -17 -105 -38 -126 -55 -92 -72 -122 -114 -111 -156 18 -74
141 -153 330 -212 55 -17 114 -36 132 -42 17 -5 56 -12 85 -15 29 -3 64 -10
78 -15 14 -5 59 -13 100 -19 41 -5 102 -15 135 -21 33 -5 87 -12 120 -15 33
-2 105 -8 160 -13 401 -35 871 -35 1280 -1 210 18 272 26 425 55 47 8 114 20
149 25 35 5 77 14 95 19 17 6 76 25 131 42 189 59 312 138 330 212 11 41 -29
97 -110 155 -28 20 -179 79 -225 88 -17 4 -33 11 -36 15 -9 14 -34 10 -40 -6
-4 -10 11 -34 39 -64 26 -27 49 -60 52 -74 7 -27 -14 -77 -49 -113 -24 -25
-154 -94 -177 -94 -9 0 -19 -3 -23 -7 -8 -9 -67 -30 -136 -49 -55 -16 -100
-24 -240 -45 -41 -6 -91 -15 -110 -20 -78 -21 -318 -32 -720 -32 -234 -1 -456
3 -495 7 -262 29 -378 45 -403 56 -13 5 -37 10 -55 10 -90 1 -386 112 -451
169 -30 27 -58 91 -51 118 3 14 26 47 52 74 28 30 43 54 39 64 -6 17 -15 19
-36 5z"/>
<path class="svg2"  d="M800 1131 c-8 -5 -49 -17 -90 -26 -171 -40 -384 -119 -465 -173 -113
-76 -140 -142 -92 -222 14 -23 34 -47 44 -54 11 -6 38 -25 61 -42 56 -42 353
-154 410 -154 11 0 24 -4 27 -10 3 -5 16 -10 27 -10 12 0 49 -6 82 -14 228
-52 289 -62 611 -101 66 -8 138 -17 160 -20 37 -5 143 -14 425 -35 410 -31
1294 -31 1700 0 295 22 388 30 425 35 22 3 94 12 160 20 267 32 447 59 463 69
5 3 33 10 63 15 48 9 110 22 234 51 22 5 58 16 80 24 22 8 46 15 54 16 38 1
230 87 273 122 26 21 51 38 56 38 6 0 22 21 37 46 38 64 32 114 -20 169 -21
22 -46 44 -55 50 -64 38 -151 80 -200 95 -32 10 -66 23 -76 28 -19 10 -45 17
-194 53 -47 12 -94 26 -106 31 -29 13 -69 6 -69 -12 0 -9 33 -32 77 -55 116
-60 188 -137 188 -200 0 -86 -156 -200 -370 -270 -149 -48 -315 -88 -465 -111
-16 -3 -48 -9 -70 -15 -46 -11 -166 -26 -340 -40 -66 -6 -136 -15 -155 -20
-143 -40 -1537 -40 -1680 0 -19 5 -89 14 -155 20 -174 14 -294 29 -340 40 -22
6 -56 13 -75 16 -390 65 -680 171 -777 286 -70 82 -70 121 4 200 29 31 77 66
127 92 86 44 103 70 51 74 -16 1 -37 -2 -45 -6z"/>
</g>
</svg>
