<?xml version="1.0" standalone="no"?>
<!DOCTYPE svg PUBLIC "-//W3C//DTD SVG 20010904//EN"
 "http://www.w3.org/TR/2001/REC-SVG-20010904/DTD/svg10.dtd">
<svg version="1.0" xmlns="http://www.w3.org/2000/svg"
 width="347.000000pt" height="568.000000pt" viewBox="0 0 347.000000 568.000000"
 preserveAspectRatio="xMidYMid meet">

<g transform="translate(0.000000,568.000000) scale(0.100000,-0.100000)"
fill="#000000" stroke="none">
<path class="svg6" d="M1455 5674 c-172 -18 -468 -77 -600 -120 -113 -37 -274 -107 -384
-168 -117 -64 -229 -165 -266 -241 -30 -61 -30 -108 -1 -245 34 -157 48 -190
99 -246 90 -98 294 -176 503 -190 l94 -7 0 -28 c0 -16 22 -360 50 -766 27
-406 50 -742 50 -748 0 -6 -30 -37 -67 -69 -142 -121 -281 -299 -361 -461 -84
-171 -122 -340 -122 -539 0 -194 36 -293 142 -391 106 -99 284 -172 523 -216
104 -20 159 -23 420 -25 291 -2 305 -1 457 27 330 59 559 129 794 243 282 137
455 282 545 458 35 70 38 133 10 269 -26 126 -44 177 -102 289 -123 237 -319
422 -589 556 -103 51 -245 105 -283 106 -22 1 -29 7 -37 37 -5 20 -36 140 -69
266 -33 127 -76 289 -96 360 -84 298 -214 820 -206 823 5 2 46 21 90 42 223
108 370 263 388 407 5 43 -15 202 -43 341 -8 38 -80 107 -147 140 -154 75
-250 93 -527 97 -124 1 -243 1 -265 -1z m693 -3076 c2 -11 -20 -25 -74 -46
-80 -33 -94 -33 -94 -2 0 14 17 24 73 43 78 28 90 28 95 5z m227 -316 c6 -4
33 -36 60 -71 35 -47 46 -68 39 -78 -13 -20 -222 -135 -238 -131 -16 4 -126
129 -126 143 0 9 233 143 250 144 3 0 10 -3 15 -7z"/>
</g>
</svg>
