<?xml version="1.0" standalone="no"?>
<!DOCTYPE svg PUBLIC "-//W3C//DTD SVG 20010904//EN"
 "http://www.w3.org/TR/2001/REC-SVG-20010904/DTD/svg10.dtd">
<svg version="1.0" xmlns="http://www.w3.org/2000/svg"
 width="943.000000pt" height="965.000000pt" viewBox="0 0 943.000000 965.000000"
 preserveAspectRatio="xMidYMid meet">

<g transform="translate(0.000000,965.000000) scale(0.100000,-0.100000)"
fill="#000000" stroke="none">
<path class="svg5" d="M4311 8712 c-50 -71 -121 -300 -121 -392 l0 -52 189 -191 c223 -226
239 -244 291 -320 64 -95 66 -115 24 -254 -94 -313 -345 -1056 -489 -1453
-136 -374 -203 -529 -242 -560 -27 -21 -184 -64 -442 -120 -235 -51 -289 -70
-342 -124 -110 -110 -364 -557 -393 -693 -9 -40 -2 -43 189 -106 262 -86 1325
-400 2307 -682 547 -156 732 -202 751 -186 45 37 89 535 66 750 -5 50 -18 103
-31 130 -15 31 -97 122 -248 276 -124 126 -237 247 -249 268 -27 45 -26 69 15
287 67 360 347 1511 454 1872 24 78 47 106 123 144 63 33 246 84 437 124 85
18 182 41 216 51 55 17 63 23 86 66 49 90 103 302 96 378 l-3 40 -80 28 c-91
32 -607 182 -985 285 -140 39 -401 115 -580 170 -539 166 -973 292 -1008 292
-6 0 -20 -13 -31 -28z"/>
</g>
</svg>
