<?xml version="1.0" standalone="no"?>
<!DOCTYPE svg PUBLIC "-//W3C//DTD SVG 20010904//EN"
 "http://www.w3.org/TR/2001/REC-SVG-20010904/DTD/svg10.dtd">
<svg version="1.0" xmlns="http://www.w3.org/2000/svg"
 width="414.000000pt" height="722.000000pt" viewBox="0 0 414.000000 722.000000"
 preserveAspectRatio="xMidYMid meet">

<g transform="translate(0.000000,722.000000) scale(0.100000,-0.100000)"
fill="#000000" stroke="none">
<path class="svg3" d="M1962 6723 c-13 -7 -38 -13 -56 -13 -17 0 -44 -7 -60 -15 -15 -8 -41
-15 -57 -15 -16 0 -57 -13 -91 -30 -34 -16 -67 -30 -74 -30 -31 0 -277 -130
-319 -169 -24 -22 -51 -41 -58 -41 -16 0 -247 -232 -247 -248 0 -6 -19 -33
-42 -60 -27 -30 -70 -106 -114 -198 -81 -169 -93 -201 -103 -264 -4 -25 -13
-55 -19 -67 -7 -12 -12 -37 -12 -55 0 -19 -7 -43 -15 -54 -21 -28 -21 -457 0
-494 8 -14 15 -41 15 -60 0 -19 7 -46 15 -60 8 -14 14 -48 15 -77 0 -28 4 -54
9 -57 5 -4 12 -24 16 -46 4 -22 10 -42 15 -45 5 -3 11 -23 15 -45 4 -22 11
-42 16 -46 5 -3 9 -15 9 -28 0 -12 20 -62 45 -109 25 -48 45 -95 45 -105 0
-10 11 -34 26 -53 14 -19 50 -84 80 -145 30 -61 70 -126 89 -144 19 -19 35
-40 35 -47 0 -7 17 -32 39 -56 21 -23 45 -55 54 -72 17 -34 209 -225 225 -225
6 0 34 -19 61 -42 69 -59 101 -80 216 -136 134 -67 157 -74 248 -81 53 -4 81
-11 87 -21 6 -9 10 -420 10 -1061 0 -945 2 -1047 16 -1053 9 -3 51 -6 94 -6
69 0 81 3 90 20 8 14 10 334 9 1057 -1 1186 -13 1063 100 1063 42 1 73 6 85
15 11 8 29 15 40 15 12 0 80 30 151 66 107 54 141 77 193 130 35 35 69 64 75
64 16 0 197 181 197 197 0 6 20 33 45 61 25 27 45 54 45 58 0 5 18 28 39 51
38 41 265 484 282 548 9 36 27 88 45 133 8 18 14 46 14 61 0 16 7 42 15 57 8
16 15 43 15 60 0 18 7 45 15 60 8 16 15 54 15 85 0 31 7 74 16 95 13 30 15 70
13 203 -2 93 -8 184 -15 206 -18 58 -34 124 -44 175 -5 25 -17 70 -28 101 -26
72 -130 278 -155 306 -20 23 -27 32 -62 93 -29 50 -244 268 -285 290 -19 10
-46 30 -60 45 -28 31 -333 185 -365 185 -12 0 -25 4 -31 8 -21 19 -144 52
-193 52 -29 0 -61 5 -72 11 -30 16 -387 17 -417 2z m392 -198 c15 -8 49 -15
75 -15 25 -1 57 -7 71 -15 14 -8 40 -14 58 -15 20 0 95 -31 200 -84 l167 -84
175 -179 175 -178 62 -130 c54 -115 75 -173 124 -345 7 -27 14 -124 16 -239 3
-160 1 -200 -12 -227 -8 -17 -15 -54 -15 -81 0 -27 -5 -54 -11 -60 -6 -6 -12
-29 -15 -52 -2 -23 -8 -50 -14 -61 -6 -11 -12 -37 -14 -58 -2 -21 -15 -61 -30
-90 -14 -28 -26 -58 -26 -66 0 -19 -166 -352 -180 -361 -6 -3 -26 -37 -44 -73
-19 -37 -46 -78 -61 -92 -15 -14 -35 -41 -45 -60 -20 -39 -302 -320 -321 -320
-7 0 -22 -9 -34 -20 -29 -27 -204 -116 -246 -125 -19 -4 -40 -12 -48 -19 -8
-6 -68 -12 -146 -14 -103 -3 -139 0 -169 12 -21 9 -51 16 -67 16 -27 0 -199
82 -279 133 -51 33 -359 337 -381 377 -21 38 -56 90 -87 130 -27 35 -202 386
-202 405 0 9 -13 42 -30 75 -16 33 -30 74 -30 93 0 18 -7 42 -15 53 -8 10 -15
37 -15 60 0 22 -7 49 -15 60 -9 12 -15 43 -15 84 0 37 -7 76 -15 90 -21 37
-21 367 0 394 8 11 15 35 15 53 0 18 6 47 14 65 18 45 36 97 45 133 5 17 38
89 74 160 l65 130 169 166 168 166 135 65 c135 65 178 83 235 97 17 4 40 13
52 19 12 7 37 12 55 12 18 1 44 7 58 15 37 21 333 21 374 0z"/>
<path class="svg3" d="M1995 6258 c-11 -7 -40 -15 -65 -19 -25 -4 -61 -12 -80 -19 -46 -16
-186 -85 -229 -113 -51 -32 -290 -267 -297 -291 -3 -12 -16 -32 -29 -46 -28
-31 -95 -170 -95 -198 0 -11 -4 -24 -10 -27 -5 -3 -10 -23 -10 -43 -1 -20 -7
-48 -15 -62 -21 -37 -21 -376 0 -416 8 -16 15 -46 15 -66 0 -20 5 -40 10 -43
6 -3 10 -16 10 -28 0 -23 62 -151 85 -177 8 -8 21 -28 29 -45 18 -34 275 -295
291 -295 5 0 24 -12 40 -26 31 -27 105 -64 127 -64 7 0 40 -14 73 -30 33 -16
74 -30 91 -30 18 0 44 -7 60 -15 39 -20 323 -20 372 1 19 8 46 14 61 14 14 0
55 14 89 30 35 17 71 30 80 30 10 0 38 13 63 28 25 15 61 36 80 47 43 25 299
275 299 292 0 7 12 27 28 45 29 35 62 100 62 122 0 8 14 41 30 74 17 34 30 76
30 94 1 18 7 44 15 58 21 37 21 358 0 386 -8 10 -15 37 -15 60 0 22 -7 49 -15
60 -8 10 -15 29 -15 41 0 26 -55 134 -92 184 -16 20 -28 40 -28 45 0 12 -262
274 -274 274 -5 0 -25 12 -45 27 -44 34 -160 93 -182 93 -9 0 -30 7 -45 15
-16 8 -45 15 -64 15 -19 0 -44 7 -54 15 -25 19 -349 21 -381 3z m395 -218 c33
-16 66 -30 75 -30 16 0 145 -65 205 -103 44 -29 159 -143 187 -187 40 -65 133
-253 133 -270 0 -10 7 -31 15 -46 22 -42 21 -281 -1 -349 -18 -55 -112 -250
-147 -304 -34 -53 -147 -170 -171 -177 -12 -3 -32 -16 -46 -29 -23 -21 -168
-94 -250 -126 -23 -9 -91 -14 -203 -17 -138 -2 -171 0 -189 13 -13 8 -32 15
-43 15 -11 0 -81 31 -155 69 -118 60 -143 78 -200 139 -36 38 -75 84 -87 103
-37 58 -133 243 -133 257 0 8 -7 29 -15 47 -13 26 -15 64 -13 196 4 183 2 175
91 361 57 118 68 134 152 217 81 82 103 97 220 156 72 35 139 65 150 65 11 0
29 7 39 15 16 12 54 15 173 15 151 0 155 -1 213 -30z"/>
<path class="svg3" d="M2036 5794 c-90 -22 -174 -71 -251 -149 -111 -110 -165 -236 -165
-385 0 -149 54 -277 164 -386 109 -110 237 -164 386 -164 410 0 675 434 489
803 -42 82 -154 194 -236 236 -118 59 -260 76 -387 45z"/>
<path class="svg3" d="M1611 1555 c-18 -8 -59 -15 -90 -15 -31 0 -69 -7 -85 -15 -15 -8 -42
-15 -60 -15 -17 0 -44 -7 -60 -15 -15 -8 -41 -15 -57 -15 -15 0 -43 -6 -61
-14 -45 -18 -97 -36 -133 -45 -110 -28 -275 -197 -275 -281 0 -35 40 -103 93
-158 38 -38 79 -66 154 -102 57 -28 111 -50 121 -50 10 0 27 -7 38 -15 10 -8
37 -15 59 -15 22 0 49 -7 59 -15 12 -9 42 -15 75 -15 33 -1 64 -7 75 -15 13
-10 44 -15 85 -15 38 -1 77 -7 91 -15 18 -11 63 -14 171 -15 107 0 156 -4 182
-15 52 -21 340 -21 381 0 21 11 63 15 160 15 97 0 138 4 160 15 18 9 57 15
105 15 47 1 86 6 101 15 14 8 48 15 75 15 28 0 61 7 75 15 14 8 41 14 61 15
19 0 44 7 55 15 10 8 29 15 41 15 43 0 206 92 266 149 133 127 129 198 -15
336 -79 76 -123 105 -160 105 -12 0 -32 7 -42 15 -11 8 -31 15 -45 15 -14 0
-35 7 -45 15 -11 8 -31 15 -45 15 -14 0 -35 7 -45 15 -11 9 -42 15 -70 15 -28
1 -62 7 -76 15 -15 9 -54 14 -101 15 -48 0 -87 6 -105 15 -31 16 -140 20 -162
6 -15 -9 -22 -145 -8 -158 23 -23 108 -43 186 -43 51 0 95 -5 110 -13 15 -8
48 -17 75 -20 49 -6 272 -74 349 -105 117 -48 117 -116 0 -163 -51 -21 -102
-39 -139 -49 -39 -11 -91 -29 -133 -46 -18 -8 -52 -14 -76 -14 -24 0 -57 -7
-72 -15 -18 -9 -57 -15 -105 -15 -49 0 -87 -6 -105 -15 -43 -22 -855 -22 -898
0 -19 10 -59 15 -120 15 -60 1 -100 6 -116 15 -14 8 -48 14 -76 15 -28 0 -59
6 -70 15 -10 8 -37 15 -60 15 -22 0 -49 7 -60 15 -10 8 -29 15 -41 15 -26 0
-149 63 -180 92 -13 12 -23 29 -23 38 0 31 96 100 142 100 12 0 32 7 42 15 11
8 30 15 42 15 12 0 35 6 51 14 52 26 98 39 158 45 33 4 70 12 82 19 13 7 61
12 115 12 52 0 98 4 104 9 5 5 25 13 44 18 l35 9 3 74 c2 62 0 77 -14 87 -24
18 -150 16 -193 -2z"/>
</g>
</svg>
