<?xml version="1.0" standalone="no"?>
<!DOCTYPE svg PUBLIC "-//W3C//DTD SVG 20010904//EN"
 "http://www.w3.org/TR/2001/REC-SVG-20010904/DTD/svg10.dtd">
<svg version="1.0" xmlns="http://www.w3.org/2000/svg"
 width="348.000000pt" height="479.000000pt" viewBox="0 0 348.000000 479.000000"
 preserveAspectRatio="xMidYMid meet">

<g transform="translate(0.000000,479.000000) scale(0.100000,-0.100000)"
fill="#000000" stroke="none">
<path class="svg4"  d="M1753 4728 c-2 -5 33 -7 79 -7 84 2 77 6 -20 11 -30 2 -56 0 -59 -4z"/>
<path class="svg4"  d="M1625 4710 c-16 -7 -17 -9 -3 -9 9 -1 20 4 23 9 7 11 7 11 -20 0z"/>
<path class="svg4"  d="M2015 4710 c3 -5 18 -10 33 -9 24 0 25 1 7 9 -28 12 -47 12 -40 0z"/>
<path class="svg4"  d="M1550 4690 c-13 -8 -12 -10 3 -10 9 0 17 5 17 10 0 12 -1 12 -20 0z"/>
<path class="svg4"  d="M2120 4690 c0 -5 12 -10 28 -10 21 0 24 2 12 10 -20 13 -40 13 -40 0z"/>
<path class="svg4"  d="M2200 4670 c8 -5 22 -10 30 -10 13 0 13 1 0 10 -8 5 -22 10 -30 10
-13 0 -13 -1 0 -10z"/>
<path class="svg4"  d="M2270 4650 c0 -5 10 -10 23 -10 18 0 19 2 7 10 -19 13 -30 13 -30 0z"/>
<path class="svg4"  d="M2330 4630 c0 -5 7 -10 16 -10 8 0 12 5 9 10 -3 6 -10 10 -16 10 -5
0 -9 -4 -9 -10z"/>
<path class="svg4"  d="M1400 4610 c-13 -11 -21 -22 -18 -25 2 -3 15 6 28 20 28 30 22 33
-10 5z"/>
<path class="svg4"  d="M2390 4610 c0 -5 5 -10 11 -10 5 0 7 5 4 10 -3 6 -8 10 -11 10 -2 0
-4 -4 -4 -10z"/>
<path class="svg4"  d="M2430 4590 c0 -5 7 -10 16 -10 8 0 12 5 9 10 -3 6 -10 10 -16 10 -5
0 -9 -4 -9 -10z"/>
<path class="svg4"  d="M1350 4560 c-8 -11 -20 -20 -28 -20 -7 0 -16 -8 -19 -17 -4 -10 -22
-32 -40 -51 -18 -18 -33 -36 -33 -41 0 -4 -11 -21 -25 -37 -14 -16 -25 -34
-25 -41 0 -6 -4 -13 -9 -15 -13 -5 -91 -159 -91 -180 0 -10 -4 -18 -9 -18 -5
0 -12 -17 -15 -37 -4 -21 -12 -65 -17 -98 -19 -104 -12 -305 12 -330 5 -5 9
-17 9 -27 0 -10 5 -27 10 -38 6 -11 15 -29 20 -40 6 -11 10 -27 10 -35 0 -8 5
-15 10 -15 6 0 10 -5 10 -11 0 -6 25 -48 55 -94 47 -70 54 -87 49 -114 -4 -17
-11 -34 -15 -37 -5 -3 -9 -14 -9 -25 0 -10 -3 -19 -7 -19 -8 0 -33 -48 -33
-62 0 -28 -40 -47 -120 -57 -130 -16 -163 -22 -185 -30 -11 -5 -38 -14 -60
-20 -72 -22 -255 -110 -255 -123 0 -3 -8 -9 -19 -13 -23 -7 -161 -139 -161
-154 0 -6 -4 -11 -10 -11 -5 0 -10 -6 -10 -14 0 -8 -4 -16 -8 -18 -4 -1 -23
-23 -42 -48 -19 -24 -43 -53 -53 -64 -9 -11 -17 -25 -17 -32 0 -7 -3 -14 -7
-16 -5 -1 -19 -25 -32 -53 -13 -27 -27 -58 -32 -67 -5 -10 -9 -26 -9 -36 0
-10 -4 -22 -9 -28 -31 -33 -31 -410 0 -430 5 -3 9 -18 9 -34 0 -16 4 -32 10
-35 5 -3 10 -17 10 -31 0 -13 5 -24 10 -24 6 0 10 -11 10 -25 0 -14 5 -25 10
-25 6 0 10 -6 10 -14 0 -14 39 -96 51 -106 3 -3 13 -22 22 -42 10 -20 23 -43
30 -50 7 -7 19 -22 27 -34 31 -44 101 -116 107 -110 3 3 -4 14 -15 25 -12 10
-22 25 -22 34 0 8 -5 17 -11 19 -12 4 9 58 23 58 4 0 8 7 8 16 0 9 8 24 18 33
9 9 23 28 31 44 8 15 18 27 23 27 4 0 8 7 8 15 0 16 8 27 43 66 9 10 17 24 17
29 0 6 5 10 10 10 6 0 10 9 10 20 0 11 5 20 11 20 5 0 7 5 4 10 -4 6 -12 7
-18 3 -7 -4 -6 1 2 11 12 14 12 19 2 25 -20 13 -71 -17 -71 -40 0 -11 -4 -18
-9 -15 -5 4 -12 0 -14 -6 -4 -10 -6 -10 -6 0 -2 20 -69 15 -94 -8 -12 -11 -28
-19 -37 -18 -8 2 -27 -9 -43 -25 -24 -24 -33 -23 -28 6 0 4 -6 7 -15 7 -14 0
-14 -2 0 -22 21 -29 20 -39 -1 -31 -14 5 -13 1 6 -25 12 -18 30 -32 38 -32 9
0 13 -3 10 -7 -10 -9 -57 18 -57 34 0 7 -4 13 -10 13 -5 0 -10 7 -10 15 0 8 6
15 13 15 8 0 7 3 -3 9 -8 6 -18 7 -22 5 -4 -3 -8 10 -8 28 0 25 -3 29 -10 18
-14 -21 -13 34 1 63 9 20 9 20 -4 5 -20 -25 -27 -22 -27 12 0 17 -4 30 -10 30
-5 0 -10 19 -10 43 0 31 -3 38 -10 27 -7 -10 -10 7 -10 58 0 41 -4 72 -10 72
-13 0 -13 107 0 115 5 3 10 33 10 66 0 38 4 58 10 54 6 -4 10 7 10 25 0 16 4
38 9 48 5 9 19 40 32 67 13 28 27 52 32 53 4 2 7 11 7 21 0 9 9 23 20 31 11 8
20 19 20 25 0 6 18 31 40 55 22 24 40 48 40 52 0 13 143 152 173 167 15 8 27
18 27 21 0 4 14 13 30 20 17 7 30 16 30 21 0 5 9 9 20 9 11 0 20 5 20 10 0 6
9 10 20 10 11 0 20 5 20 10 0 6 14 10 30 10 17 0 30 3 30 8 0 9 72 32 100 32
11 0 20 4 20 9 0 9 50 18 159 27 59 5 63 4 57 -13 -4 -10 -10 -33 -13 -50 -3
-18 -10 -33 -14 -33 -5 0 -9 -9 -9 -20 0 -11 -4 -20 -10 -20 -5 0 -10 -9 -10
-20 0 -11 -4 -20 -10 -20 -5 0 -10 -9 -10 -20 0 -11 -3 -20 -7 -20 -9 0 -33
-49 -33 -67 0 -7 -4 -13 -10 -13 -6 0 -10 -35 -10 -84 0 -47 5 -88 10 -91 6
-3 10 -17 10 -30 0 -13 5 -27 10 -30 6 -3 10 -15 10 -26 0 -10 3 -19 8 -19 4
0 13 -12 20 -27 21 -48 169 -233 186 -233 3 0 25 -18 47 -40 23 -22 48 -40 56
-40 9 0 13 -6 10 -14 -4 -11 -1 -13 11 -9 15 6 15 4 4 -10 -8 -8 -20 -13 -28
-10 -8 3 -14 0 -14 -7 0 -6 -4 -9 -9 -5 -6 3 -34 -7 -63 -23 -29 -15 -73 -34
-98 -42 -25 -7 -52 -20 -61 -27 -8 -7 -21 -13 -28 -13 -15 0 -73 -31 -82 -43
-3 -5 -10 -9 -15 -8 -27 1 -95 -24 -114 -41 -11 -11 -27 -17 -35 -14 -10 3
-12 0 -8 -12 6 -15 5 -15 -11 -3 -16 13 -17 13 -14 -4 3 -22 79 -104 90 -98 4
2 32 -21 62 -52 31 -30 60 -55 66 -55 5 0 28 -17 50 -38 41 -38 41 -38 22 -60
-11 -12 -24 -22 -31 -22 -6 0 -11 -4 -11 -10 0 -5 -14 -10 -31 -10 -33 0 -46
-10 -68 -52 -8 -16 -18 -28 -21 -28 -4 0 -13 -13 -20 -30 -7 -16 -16 -30 -21
-30 -5 0 -9 -7 -9 -15 0 -8 -4 -15 -10 -15 -5 0 -10 -7 -10 -15 0 -8 -4 -15
-10 -15 -5 0 -10 -5 -10 -11 0 -11 -54 -92 -79 -118 -10 -12 -19 -12 -42 -4
-16 6 -29 7 -29 2 0 -5 5 -9 10 -9 6 0 24 -13 42 -30 17 -16 37 -30 44 -30 8
0 14 -4 14 -8 0 -5 12 -15 28 -23 58 -30 64 -48 32 -104 -11 -20 -20 -42 -20
-49 0 -8 -3 -16 -7 -18 -10 -4 -46 -108 -40 -114 2 -3 10 9 17 26 7 16 16 30
21 30 5 0 9 6 9 13 0 7 9 23 20 35 11 12 20 27 20 34 0 8 9 20 20 28 11 8 20
21 20 28 0 18 48 7 72 -16 15 -15 15 -21 2 -57 -7 -22 -14 -51 -14 -65 0 -15
-4 -30 -9 -35 -5 -6 -11 -28 -15 -50 -12 -87 -19 -115 -27 -115 -5 0 -9 -9 -9
-20 0 -11 -4 -20 -10 -20 -5 0 -10 -9 -10 -20 0 -11 -4 -20 -10 -20 -5 0 -10
-9 -10 -20 0 -11 -4 -20 -10 -20 -5 0 -10 -9 -10 -20 0 -11 -4 -20 -10 -20 -5
0 -10 -9 -10 -20 0 -11 -4 -20 -10 -20 -5 0 -10 -9 -10 -20 0 -11 -3 -20 -7
-20 -9 0 -33 -49 -33 -67 0 -7 -3 -13 -7 -13 -9 0 -33 -49 -33 -67 0 -7 -3
-13 -7 -13 -9 0 -33 -49 -33 -67 0 -7 -4 -13 -10 -13 -5 0 -10 -9 -10 -21 0
-11 -5 -17 -10 -14 -18 11 -11 -17 7 -31 31 -23 74 -12 82 21 1 6 11 20 21 33
11 12 20 26 20 30 0 15 25 62 33 62 4 0 7 9 7 20 0 11 5 20 11 20 5 0 8 4 4 9
-3 5 2 16 10 24 8 9 15 23 15 31 0 9 5 16 10 16 6 0 10 7 10 16 0 8 7 22 15
31 8 8 13 19 10 24 -4 5 -1 9 4 9 6 0 11 9 11 20 0 11 5 20 10 20 6 0 10 9 10
20 0 11 3 20 8 20 8 0 32 49 32 67 0 7 4 13 9 13 5 0 12 9 16 19 3 11 19 34
35 53 17 18 32 41 36 51 3 9 10 17 15 17 5 0 9 5 9 11 0 7 16 26 35 45 19 18
35 36 35 41 0 15 39 43 45 33 4 -6 19 -10 35 -10 16 0 32 -4 35 -10 3 -5 22
-10 41 -10 19 0 34 -4 34 -10 0 -5 18 -10 39 -10 22 0 43 -4 46 -10 3 -5 34
-10 69 -10 34 0 67 -5 72 -10 7 -7 69 -9 180 -6 193 5 284 14 284 27 0 5 15 9
34 9 19 0 38 5 41 10 3 6 17 10 30 10 13 0 27 5 30 10 3 6 14 10 23 10 22 0
182 80 182 91 0 5 7 9 15 9 30 0 244 211 245 241 0 4 18 26 40 49 22 23 40 49
40 56 0 8 4 14 8 14 12 0 52 78 52 101 0 10 5 19 10 19 6 0 10 8 10 18 0 10 4
22 9 28 16 17 24 87 28 252 3 108 0 162 -7 162 -5 0 -10 18 -10 39 0 22 -4 43
-10 46 -5 3 -10 17 -10 30 0 13 -4 27 -10 30 -5 3 -10 15 -10 25 0 11 -9 35
-20 55 -11 20 -20 42 -20 50 0 8 -4 15 -8 15 -5 0 -14 16 -22 35 -8 19 -17 35
-20 35 -3 0 -12 16 -20 35 -8 19 -16 35 -20 35 -3 0 -14 13 -23 29 -10 17 -38
54 -62 82 -43 50 -57 91 -35 104 6 3 10 15 10 26 0 10 5 19 10 19 6 0 10 7 10
15 0 8 6 25 13 38 27 48 39 57 83 57 41 0 79 7 179 32 63 16 144 56 194 96 56
45 161 152 161 165 0 4 -7 1 -16 -8 -19 -19 -34 -16 -48 11 -6 10 -14 21 -17
24 -3 3 -8 12 -12 20 -4 8 -18 32 -32 53 l-25 37 30 0 c16 0 30 5 30 10 0 6 9
10 20 10 11 0 20 5 20 10 0 6 9 10 20 10 11 0 20 5 20 10 0 6 9 10 20 10 11 0
20 5 20 10 0 6 7 10 15 10 17 0 105 84 105 100 0 5 4 10 9 10 5 0 11 8 15 18
3 9 10 24 15 32 17 26 41 118 41 155 0 48 -23 165 -32 165 -5 0 -8 14 -8 30 0
17 -4 30 -10 30 -5 0 -10 6 -10 14 0 13 -38 94 -50 106 -3 3 -11 17 -19 33 -8
15 -18 27 -23 27 -4 0 -8 6 -8 13 0 31 -283 321 -349 356 -10 6 -21 7 -25 4
-3 -3 -6 1 -6 9 0 9 -7 19 -16 22 -21 8 -21 8 -21 -9 0 -8 4 -12 8 -10 3 3 12
-2 19 -10 7 -8 16 -12 21 -9 5 3 9 -2 9 -10 0 -8 5 -18 12 -22 7 -5 9 -2 3 7
-4 8 13 -8 38 -35 26 -27 44 -53 41 -57 -2 -4 1 -11 7 -15 7 -4 9 -3 5 4 -3 6
-2 14 4 17 6 4 10 3 9 -2 -3 -20 2 -34 11 -28 6 3 10 -1 10 -9 0 -9 5 -16 11
-16 6 0 9 -6 6 -14 -3 -8 1 -13 11 -12 9 0 17 -3 17 -9 0 -5 4 -16 8 -22 5 -8
4 -13 -2 -13 -6 0 -11 5 -11 11 0 5 -5 7 -12 3 -6 -4 -9 -3 -6 2 3 5 -3 17
-14 27 -10 9 -18 14 -18 10 0 -3 -8 4 -19 15 -10 12 -23 22 -30 22 -6 0 -11 5
-11 10 0 6 -5 10 -10 10 -6 0 -20 8 -31 19 -13 11 -28 17 -41 13 -14 -3 -19
-1 -14 6 8 14 -21 5 -43 -12 -14 -11 -62 -30 -118 -47 -18 -6 -33 -13 -33 -17
0 -4 -20 -13 -44 -21 -24 -7 -65 -23 -91 -37 -27 -13 -54 -24 -62 -24 -7 0
-13 -4 -13 -10 0 -5 -8 -10 -18 -10 -10 0 -27 -7 -39 -15 -11 -8 -42 -22 -69
-31 -27 -9 -78 -29 -114 -46 -36 -16 -80 -36 -97 -44 -73 -32 -108 -49 -114
-57 -3 -4 -10 -7 -15 -6 -5 1 -18 -1 -29 -6 -11 -4 -49 -19 -85 -32 -36 -14
-68 -28 -72 -32 -9 -8 84 -111 100 -111 11 0 22 -23 22 -46 0 -8 -4 -14 -9
-14 -5 0 -7 9 -4 20 3 12 0 20 -6 20 -7 0 -10 -4 -7 -8 2 -4 1 -14 -5 -22 -6
-10 -9 -11 -9 -2 0 19 -20 14 -20 -5 0 -15 -2 -16 -10 -3 -5 8 -12 11 -16 7
-5 -4 3 -18 16 -30 39 -36 156 -117 169 -117 6 0 11 -4 11 -10 0 -5 6 -10 13
-10 7 0 22 -8 33 -18 10 -10 34 -25 52 -32 17 -8 32 -18 32 -22 0 -5 9 -8 21
-8 11 0 17 -4 14 -10 -3 -5 1 -10 9 -10 9 0 16 -4 16 -9 0 -15 -30 -41 -48
-43 -9 0 -21 -2 -27 -3 -5 -2 -22 -3 -37 -4 -29 -1 -56 -25 -79 -69 -8 -15
-19 -33 -26 -40 -7 -7 -20 -26 -30 -42 -9 -17 -20 -30 -24 -30 -4 0 -12 -13
-19 -30 -7 -16 -15 -30 -19 -30 -3 0 -26 -32 -51 -70 -44 -68 -46 -70 -80 -65
-72 10 -193 82 -287 170 -49 46 -52 65 -20 114 13 20 37 56 53 80 16 24 33 51
39 60 5 9 19 30 31 46 12 17 29 46 39 65 10 18 24 40 31 48 21 21 17 47 -11
62 -14 7 -25 17 -25 22 0 4 -7 8 -16 8 -8 0 -12 5 -9 10 3 6 3 10 -2 10 -4 0
-34 24 -65 53 -90 82 -85 79 -91 55 -3 -11 -10 -17 -16 -13 -6 3 -11 1 -11 -5
0 -7 7 -10 15 -6 10 4 15 -1 15 -14 0 -22 -25 -27 -33 -7 -4 10 -6 10 -6 0 -1
-7 -6 -13 -11 -13 -6 0 -20 -9 -32 -20 -12 -11 -30 -20 -40 -20 -10 0 -18 -4
-18 -10 0 -5 -6 -10 -13 -10 -8 0 -20 -11 -27 -25 -7 -14 -18 -25 -23 -25 -5
0 -4 -6 2 -14 10 -11 7 -14 -14 -12 -18 1 -28 8 -32 24 -3 12 -9 22 -15 22 -5
0 -6 5 -3 10 3 6 0 10 -9 10 -8 0 -13 -7 -11 -17 1 -10 8 -17 15 -15 6 1 9 -2
5 -8 -3 -6 -11 -8 -16 -5 -5 4 -9 2 -9 -4 0 -5 8 -15 18 -20 11 -7 12 -10 3
-11 -7 0 -11 -6 -8 -13 2 -6 -1 -18 -9 -24 -10 -10 -12 -8 -11 10 0 12 4 24 8
27 4 3 0 12 -9 20 -14 13 -15 12 -9 -3 3 -9 2 -19 -3 -22 -6 -4 -10 3 -10 14
0 12 -4 21 -10 21 -5 0 -10 11 -10 25 0 14 -4 25 -10 25 -5 0 -10 9 -10 20 0
11 -4 20 -10 20 -5 0 -10 16 -10 35 0 19 -4 35 -10 35 -6 0 -10 62 -10 165 0
103 4 165 10 165 6 0 10 18 10 40 0 22 5 40 10 40 6 0 10 14 10 30 0 17 5 30
10 30 6 0 10 9 10 20 0 11 5 20 10 20 6 0 10 9 10 20 0 11 5 20 10 20 6 0 10
8 10 18 0 10 9 24 20 32 11 8 20 21 20 30 0 9 9 22 20 30 11 8 20 20 20 28 0
7 16 28 35 48 19 19 35 38 35 43 0 5 13 24 30 42 16 19 30 37 30 42 0 11 -5 8
-20 -13z m127 -882 c-3 -7 -5 -2 -5 12 0 14 2 19 5 13 2 -7 2 -19 0 -25z
m-272 -198 c-3 -5 -12 -10 -18 -10 -7 0 -6 4 3 10 19 12 23 12 15 0z m55 -205
c0 -11 -43 -96 -51 -101 -5 -3 -9 2 -9 10 0 9 5 16 10 16 6 0 10 9 10 20 0 11
5 20 10 20 6 0 10 9 10 20 0 11 5 20 10 20 6 0 10 -2 10 -5z m-63 -135 c-1
-11 -4 -20 -8 -20 -7 0 0 -37 22 -125 11 -45 47 -122 67 -143 6 -7 12 -16 12
-20 0 -4 14 -22 30 -41 16 -18 27 -37 25 -41 -3 -5 3 -11 12 -13 14 -4 13 -5
-4 -6 -12 0 -24 5 -26 12 -3 6 -6 2 -6 -10 -1 -25 -69 -86 -88 -78 -7 2 -13
-2 -13 -10 0 -7 -22 -21 -50 -30 -27 -9 -50 -21 -50 -25 0 -5 -14 -7 -31 -5
-28 3 -31 2 -26 -21 5 -28 -10 -43 -19 -19 -6 13 -8 14 -15 3 -6 -9 -9 -4 -9
15 0 15 -4 27 -10 27 -5 0 -10 18 -10 40 0 22 -4 40 -10 40 -5 0 -10 11 -10
25 0 14 5 25 10 25 6 0 10 17 10 38 0 26 6 42 20 52 11 8 20 22 20 32 0 9 5
20 10 23 6 3 10 17 10 31 0 13 5 24 10 24 6 0 10 9 10 20 0 11 5 20 10 20 6 0
10 9 10 20 0 11 5 20 10 20 6 0 10 9 10 20 0 11 5 20 10 20 6 0 10 9 10 20 0
11 5 20 10 20 6 0 10 9 10 20 0 11 5 20 10 20 6 0 10 9 10 20 0 11 4 20 9 20
6 0 9 -9 8 -20z m-97 -584 c0 -3 -4 -8 -10 -11 -5 -3 -10 -1 -10 4 0 6 5 11
10 11 6 0 10 -2 10 -4z m-15 -77 c4 -11 4 -23 1 -26 -3 -4 -6 1 -6 11 0 9 -4
14 -10 11 -5 -3 -10 1 -10 9 0 23 18 20 25 -5z m-745 -729 c0 -5 -4 -10 -9
-10 -6 0 -13 5 -16 10 -3 6 1 10 9 10 9 0 16 -4 16 -10z m40 6 c0 -3 -4 -8
-10 -11 -5 -3 -10 -1 -10 4 0 6 5 11 10 11 6 0 10 -2 10 -4z m-77 -44 c-6 -24
-23 -30 -23 -9 0 13 21 39 26 34 2 -2 1 -13 -3 -25z"/>
<path class="svg4"  d="M2470 4571 c0 -5 11 -11 24 -13 17 -4 23 -1 19 9 -6 14 -43 18 -43 4z"/>
<path class="svg4"  d="M2540 4538 c8 -9 17 -16 20 -15 10 3 70 -28 70 -35 0 -5 7 -8 16 -8
20 0 45 -25 36 -35 -4 -5 -1 -5 7 0 11 6 8 13 -15 32 -43 35 -46 37 -79 49
-16 6 -39 15 -50 20 -17 7 -18 6 -5 -8z"/>
<path class="svg4"  d="M2710 4444 c0 -8 5 -12 10 -9 6 3 10 10 10 16 0 5 -4 9 -10 9 -5 0
-10 -7 -10 -16z"/>
<path class="svg4"  d="M2730 4430 c0 -5 7 -10 16 -10 8 0 12 5 9 10 -3 6 -10 10 -16 10 -5
0 -9 -4 -9 -10z"/>
<path class="svg4"  d="M2776 4396 c6 -16 44 -29 44 -15 0 8 -32 29 -44 29 -3 0 -3 -6 0 -14z"/>
<path class="svg4"  d="M1808 3633 c7 -3 16 -2 19 1 4 3 -2 6 -13 5 -11 0 -14 -3 -6 -6z"/>
<path class="svg4"  d="M1136 3571 c-4 -5 -2 -12 3 -15 5 -4 12 -2 15 3 4 5 2 12 -3 15 -5 4
-12 2 -15 -3z"/>
</g>
</svg>
