<?xml version="1.0" standalone="no"?>
<!DOCTYPE svg PUBLIC "-//W3C//DTD SVG 20010904//EN"
 "http://www.w3.org/TR/2001/REC-SVG-20010904/DTD/svg10.dtd">
<svg version="1.0" xmlns="http://www.w3.org/2000/svg"
 width="40px" height="50px" viewBox="0 0 569.000000 640.000000"
 preserveAspectRatio="xMidYMid meet">
 <!-- width="569.000000pt" height="640.000000pt" viewBox="0 0 569.000000 640.000000" -->

<g transform="translate(0.000000,640.000000) scale(0.100000,-0.100000)"
fill="#000000" stroke="none">
<path class="svg1" d="M2650 6209 c-110 -9 -241 -26 -310 -41 -30 -6 -66 -13 -80 -15 -69
-8 -353 -98 -465 -146 -84 -37 -287 -142 -334 -173 -24 -16 -58 -38 -75 -48
-17 -11 -89 -68 -161 -127 -145 -119 -213 -188 -335 -339 -45 -56 -156 -239
-187 -310 -14 -30 -31 -68 -38 -85 -22 -48 -66 -185 -75 -235 -5 -25 -14 -65
-19 -90 -6 -25 -10 -68 -11 -95 0 -28 -5 -56 -11 -62 -18 -18 10 -386 32 -407
5 -6 9 -18 9 -28 0 -48 137 -346 194 -421 17 -23 43 -61 58 -84 15 -23 58 -79
94 -125 60 -74 96 -115 241 -269 51 -55 203 -199 313 -299 45 -41 110 -100
144 -131 69 -64 176 -161 290 -264 197 -178 459 -450 539 -561 25 -33 56 -73
71 -89 33 -35 160 -246 208 -345 43 -88 76 -179 86 -240 7 -42 32 -69 32 -35
0 31 59 192 102 282 51 103 166 295 202 338 14 17 47 57 72 90 25 33 85 102
132 154 169 183 294 303 716 685 173 157 202 184 282 261 45 44 95 92 111 106
15 14 48 48 72 75 25 27 72 78 105 114 34 36 73 81 89 100 15 19 43 54 61 77
19 24 45 60 57 80 13 21 38 57 56 81 41 55 144 265 173 357 13 39 27 79 32 90
21 51 45 377 30 409 -6 12 -13 59 -17 106 -3 47 -10 99 -15 115 -5 17 -24 77
-41 135 -17 58 -44 132 -60 166 -16 34 -29 64 -29 67 0 12 -147 246 -180 287
-77 94 -97 118 -155 178 -61 65 -307 272 -322 272 -5 0 -24 13 -43 28 -48 39
-137 90 -266 152 -159 76 -181 85 -269 115 -365 122 -758 173 -1105 144z m420
-962 c170 -26 376 -103 475 -176 22 -17 57 -39 77 -51 68 -37 216 -202 276
-308 29 -53 81 -213 92 -288 13 -89 2 -223 -27 -319 -14 -47 -55 -147 -71
-171 -66 -103 -86 -127 -174 -216 -56 -55 -177 -148 -194 -148 -2 0 -21 -11
-42 -23 -58 -37 -206 -91 -332 -123 -106 -26 -130 -28 -300 -28 -158 0 -199 3
-280 23 -259 62 -446 157 -587 298 -89 90 -108 114 -175 217 -41 63 -83 197
-98 310 -10 79 1 237 19 281 5 11 21 54 36 95 14 41 50 111 80 155 62 93 177
215 232 245 21 11 56 34 78 50 106 78 310 153 473 175 57 7 107 16 110 20 11
10 220 -1 332 -18z"/>
<path class="svg1"  d="M2040 1129 c-19 -4 -57 -13 -84 -18 -149 -33 -276 -97 -276 -140 0
-22 74 -76 132 -97 82 -29 248 -64 345 -74 54 -5 123 -15 153 -22 79 -18 1001
-18 1080 0 30 7 99 17 153 22 103 10 275 48 356 79 58 22 121 70 121 92 0 34
-66 76 -167 107 -120 37 -243 65 -251 58 -7 -8 -6 -9 71 -41 59 -25 107 -65
107 -90 0 -10 -64 -65 -76 -65 -6 0 -17 -6 -23 -14 -25 -30 -281 -82 -471 -97
-176 -13 -732 -7 -845 10 -151 22 -329 67 -346 87 -6 8 -17 14 -23 14 -6 0
-26 13 -44 30 -32 29 -32 30 -18 59 18 33 73 69 124 79 20 4 37 13 40 20 4 13
-6 14 -58 1z"/>
<path class="svg1"  d="M1450 1019 c-237 -67 -289 -88 -346 -146 -19 -19 -34 -43 -34 -54 0
-31 79 -98 155 -130 89 -37 319 -95 454 -115 58 -8 120 -17 136 -19 17 -2 50
-7 74 -10 41 -6 354 -30 491 -38 224 -13 623 -17 800 -8 214 10 556 35 631 46
24 3 58 8 74 10 17 2 79 11 140 20 60 8 123 20 140 25 16 5 78 21 137 35 58
14 137 39 175 55 74 31 153 98 153 129 0 52 -125 130 -275 171 -156 43 -198
51 -208 41 -7 -7 7 -18 44 -35 163 -75 151 -166 -31 -238 -148 -58 -276 -89
-450 -108 -58 -6 -123 -16 -145 -21 -175 -39 -1248 -39 -1435 1 -25 5 -101 17
-170 25 -114 14 -159 23 -289 55 -61 15 -190 69 -224 94 -28 20 -57 64 -57 85
0 24 74 91 118 107 58 22 60 23 42 34 -18 12 -20 12 -100 -11z"/>
<path class="svg1"  d="M695 904 c-181 -40 -188 -42 -230 -58 -22 -8 -49 -15 -61 -16 -11 0
-24 -4 -30 -8 -5 -5 -41 -20 -79 -35 -88 -34 -165 -100 -165 -142 0 -16 12
-46 26 -67 58 -83 312 -172 651 -228 62 -10 117 -21 122 -24 5 -3 71 -13 148
-21 76 -8 167 -19 203 -25 53 -9 211 -23 470 -44 505 -41 1666 -41 2205 -1 22
2 85 8 140 14 55 6 147 15 205 20 152 13 460 50 470 56 5 3 51 12 102 21 346
57 615 150 671 232 30 43 34 77 12 109 -32 46 -194 130 -285 149 -19 4 -48 12
-65 19 -16 7 -52 18 -80 23 -27 6 -83 18 -123 27 -83 20 -171 25 -173 10 -1
-5 35 -26 80 -45 101 -43 181 -114 181 -159 0 -31 -31 -69 -94 -115 -78 -58
-331 -133 -571 -171 -55 -9 -116 -20 -135 -25 -19 -4 -84 -13 -145 -19 -60 -6
-135 -14 -165 -18 -315 -37 -702 -56 -1130 -56 -400 0 -859 21 -1035 47 -11 2
-54 6 -95 10 -200 19 -277 28 -304 37 -15 5 -67 14 -115 19 -134 17 -403 87
-504 131 -124 55 -186 110 -187 167 0 38 88 112 181 152 146 63 104 77 -96 34z"/>
</g>
</svg>
